<svg width="30" height="30" fill="none" xmlns="http://www.w3.org/2000/svg"><path fill-rule="evenodd" clip-rule="evenodd" d="m6.187 12.5 7.576-7.576.943.943-7.577 7.576-.942-.943ZM8.7 15.014l7.577-7.576.943.943-7.577 7.576-.942-.943ZM14.043 20.357l7.576-7.576.943.942-7.576 7.576-.943-.942ZM16.557 22.87l7.577-7.576.942.943-7.576 7.576-.943-.942Z" fill="#3369F3"/><path fill-rule="evenodd" clip-rule="evenodd" d="M16.557 22.87c-2.615 2.616-6.845 2.625-9.449.022-2.603-2.604-2.594-6.834.021-9.45l-.942-.942c-3.139 3.138-3.15 8.215-.026 11.339 3.124 3.124 8.201 3.113 11.34-.025l-.944-.943ZM21.62 12.78l.942.943c2.441-2.44 2.45-6.389.02-8.819-2.43-2.43-6.379-2.421-8.82.02l.944.943c1.917-1.918 5.02-1.925 6.929-.016 1.91 1.91 1.902 5.012-.016 6.93Z" fill="#3369F3"/><path fill-rule="evenodd" clip-rule="evenodd" d="M8.7 15.014c-1.742 1.744-1.749 4.564-.013 6.3 1.736 1.735 4.556 1.73 6.3-.014l-.944-.943a3.118 3.118 0 0 1-4.41.01 3.118 3.118 0 0 1 .01-4.41l-.942-.943Z" fill="#3369F3"/></svg>